# xmcd
#
# Track frame offsets:
#	150
#	8681
#	19747
#	30679
#	41988
#	51188
#	60923
#	72357
#	82194
#	91108
#	102256
#	112156
#	121020
#	132444
#
# Disc length: 1882 seconds
#
# Revision: 1
# Processed by: cddbd v1.5.2PL0 Copyright (c) Steve Scherf et al.
# Submitted via: EZCDAudioConverter 4.0.5.1
#
DISCID=b707580e
DTITLE=Mike Bell and the Belltones - The beat that can't be beat
DYEAR=2016
DGENRE=
TTITLE0=The Beat That Can’t Be Beat
TTITLE1=The Chicken and The Hawk
TTITLE2=Rosebud
TTITLE3=Last Time To Cry
TTITLE4=Brick By Brick
TTITLE5=I’m In The Mood For You
TTITLE6=Everytime
TTITLE7=Crazy In Love
TTITLE8=What I Get For Lovin’ You
TTITLE9=The Devil In Me
TTITLE10=Monkey See, Monkey Do
TTITLE11=Go Hog Wild
TTITLE12=Downtown Baby
TTITLE13=Melody
EXTD=
EXTT0=
EXTT1=
EXTT2=
EXTT3=
EXTT4=
EXTT5=
EXTT6=
EXTT7=
EXTT8=
EXTT9=
EXTT10=
EXTT11=
EXTT12=
EXTT13=
PLAYORDER=
